  0
SECTION
  2
BLOCKS
  0
ENDSEC
  0
SECTION
  2
ENTITIES
  0
LINE
  8
0
 10
369.988
 20
180.764
 11
407.25
 21
196.199
  0
LINE
  8
0
 10
407.25
 20
196.199
 11
439.248
 21
220.752
  0
LINE
  8
0
 10
439.248
 20
220.752
 11
463.801
 21
252.75
  0
LINE
  8
0
 10
463.801
 20
252.75
 11
479.236
 21
290.012
  0
LINE
  8
0
 10
479.236
 20
290.012
 11
484.5
 21
330
  0
LINE
  8
0
 10
484.5
 20
330
 11
479.236
 21
369.988
  0
LINE
  8
0
 10
479.236
 20
369.988
 11
463.801
 21
407.25
  0
LINE
  8
0
 10
463.801
 20
407.25
 11
439.248
 21
439.248
  0
LINE
  8
0
 10
439.248
 20
439.248
 11
407.25
 21
463.801
  0
LINE
  8
0
 10
407.25
 20
463.801
 11
369.988
 21
479.236
  0
LINE
  8
0
 10
369.988
 20
479.236
 11
330
 21
484.5
  0
LINE
  8
0
 10
330
 20
484.5
 11
290.012
 21
479.236
  0
LINE
  8
0
 10
290.012
 20
479.236
 11
252.75
 21
463.801
  0
LINE
  8
0
 10
252.75
 20
463.801
 11
220.752
 21
439.248
  0
LINE
  8
0
 10
220.752
 20
439.248
 11
196.199
 21
407.25
  0
LINE
  8
0
 10
196.199
 20
407.25
 11
180.764
 21
369.988
  0
LINE
  8
0
 10
180.764
 20
369.988
 11
175.5
 21
330
  0
LINE
  8
0
 10
175.5
 20
330
 11
180.764
 21
290.012
  0
LINE
  8
0
 10
180.764
 20
290.012
 11
196.199
 21
252.75
  0
LINE
  8
0
 10
196.199
 20
252.75
 11
220.752
 21
220.752
  0
LINE
  8
0
 10
220.752
 20
220.752
 11
252.75
 21
196.199
  0
LINE
  8
0
 10
252.75
 20
196.199
 11
290.012
 21
180.764
  0
LINE
  8
0
 10
290.012
 20
180.764
 11
330
 21
175.5
  0
LINE
  8
0
 10
330
 20
175.5
 11
369.988
 21
180.764
  0
LINE
  8
0
 10
327
 20
478.06
 11
327
 21
481.94
  0
LINE
  8
0
 10
327
 20
481.94
 11
333
 21
481.94
  0
LINE
  8
0
 10
333
 20
481.94
 11
333
 21
478.06
  0
LINE
  8
0
 10
333
 20
478.06
 11
327
 21
478.06
  0
LINE
  8
0
 10
365.423
 20
473.791
 11
366.427
 21
477.539
  0
LINE
  8
0
 10
366.427
 20
477.539
 11
372.223
 21
475.986
  0
LINE
  8
0
 10
372.223
 20
475.986
 11
371.219
 21
472.239
  0
LINE
  8
0
 10
371.219
 20
472.239
 11
365.423
 21
473.791
  0
LINE
  8
0
 10
287.777
 20
475.986
 11
293.573
 21
477.539
  0
LINE
  8
0
 10
293.573
 20
477.539
 11
294.577
 21
473.791
  0
LINE
  8
0
 10
294.577
 20
473.791
 11
288.781
 21
472.239
  0
LINE
  8
0
 10
288.781
 20
472.239
 11
287.777
 21
475.986
  0
LINE
  8
0
 10
401.432
 20
459.724
 11
403.372
 21
463.084
  0
LINE
  8
0
 10
403.372
 20
463.084
 11
408.568
 21
460.084
  0
LINE
  8
0
 10
408.568
 20
460.084
 11
406.628
 21
456.724
  0
LINE
  8
0
 10
406.628
 20
456.724
 11
401.432
 21
459.724
  0
LINE
  8
0
 10
251.432
 20
460.084
 11
256.628
 21
463.084
  0
LINE
  8
0
 10
256.628
 20
463.084
 11
258.568
 21
459.724
  0
LINE
  8
0
 10
258.568
 20
459.724
 11
253.372
 21
456.724
  0
LINE
  8
0
 10
253.372
 20
456.724
 11
251.432
 21
460.084
  0
LINE
  8
0
 10
432.573
 20
436.816
 11
435.316
 21
439.559
  0
LINE
  8
0
 10
435.316
 20
439.559
 11
439.559
 21
435.316
  0
LINE
  8
0
 10
439.559
 20
435.316
 11
436.816
 21
432.573
  0
LINE
  8
0
 10
436.816
 20
432.573
 11
432.573
 21
436.816
  0
LINE
  8
0
 10
220.441
 20
435.316
 11
224.684
 21
439.559
  0
LINE
  8
0
 10
224.684
 20
439.559
 11
227.427
 21
436.816
  0
LINE
  8
0
 10
227.427
 20
436.816
 11
223.184
 21
432.573
  0
LINE
  8
0
 10
223.184
 20
432.573
 11
220.441
 21
435.316
  0
LINE
  8
0
 10
339.825
 20
427.613
 11
340.331
 21
431.459
  0
LINE
  8
0
 10
340.331
 20
431.459
 11
346.28
 21
430.676
  0
LINE
  8
0
 10
346.28
 20
430.676
 11
345.774
 21
426.829
  0
LINE
  8
0
 10
345.774
 20
426.829
 11
339.825
 21
427.613
  0
LINE
  8
0
 10
313.72
 20
430.676
 11
319.669
 21
431.459
  0
LINE
  8
0
 10
319.669
 20
431.459
 11
320.175
 21
427.613
  0
LINE
  8
0
 10
320.175
 20
427.613
 11
314.226
 21
426.829
  0
LINE
  8
0
 10
314.226
 20
426.829
 11
313.72
 21
430.676
  0
LINE
  8
0
 10
305.153
 20
237.271
 11
282
 21
246.862
  0
LINE
  8
0
 10
282
 20
246.862
 11
262.118
 21
262.118
  0
LINE
  8
0
 10
262.118
 20
262.118
 11
246.862
 21
282
  0
LINE
  8
0
 10
246.862
 20
282
 11
237.271
 21
305.153
  0
LINE
  8
0
 10
237.271
 20
305.153
 11
234
 21
330
  0
LINE
  8
0
 10
234
 20
330
 11
237.271
 21
354.847
  0
LINE
  8
0
 10
237.271
 20
354.847
 11
246.862
 21
378
  0
LINE
  8
0
 10
246.862
 20
378
 11
262.118
 21
397.882
  0
LINE
  8
0
 10
262.118
 20
397.882
 11
282
 21
413.138
  0
LINE
  8
0
 10
282
 20
413.138
 11
305.153
 21
422.729
  0
LINE
  8
0
 10
305.153
 20
422.729
 11
330
 21
426
  0
LINE
  8
0
 10
330
 20
426
 11
354.847
 21
422.729
  0
LINE
  8
0
 10
354.847
 20
422.729
 11
378
 21
413.138
  0
LINE
  8
0
 10
378
 20
413.138
 11
397.882
 21
397.882
  0
LINE
  8
0
 10
397.882
 20
397.882
 11
413.138
 21
378
  0
LINE
  8
0
 10
413.138
 20
378
 11
422.729
 21
354.847
  0
LINE
  8
0
 10
422.729
 20
354.847
 11
426
 21
330
  0
LINE
  8
0
 10
426
 20
330
 11
422.729
 21
305.153
  0
LINE
  8
0
 10
422.729
 20
305.153
 11
413.138
 21
282
  0
LINE
  8
0
 10
413.138
 20
282
 11
397.882
 21
262.118
  0
LINE
  8
0
 10
397.882
 20
262.118
 11
378
 21
246.862
  0
LINE
  8
0
 10
378
 20
246.862
 11
354.847
 21
237.271
  0
LINE
  8
0
 10
354.847
 20
237.271
 11
330
 21
234
  0
LINE
  8
0
 10
330
 20
234
 11
305.153
 21
237.271
  0
LINE
  8
0
 10
288.218
 20
423.032
 11
293.761
 21
425.328
  0
LINE
  8
0
 10
293.761
 20
425.328
 11
295.246
 21
421.744
  0
LINE
  8
0
 10
295.246
 20
421.744
 11
289.702
 21
419.448
  0
LINE
  8
0
 10
289.702
 20
419.448
 11
288.218
 21
423.032
  0
LINE
  8
0
 10
364.754
 20
421.744
 11
366.239
 21
425.328
  0
LINE
  8
0
 10
366.239
 20
425.328
 11
371.782
 21
423.032
  0
LINE
  8
0
 10
371.782
 20
423.032
 11
370.298
 21
419.448
  0
LINE
  8
0
 10
370.298
 20
419.448
 11
364.754
 21
421.744
  0
LINE
  8
0
 10
265.563
 20
409.048
 11
270.323
 21
412.701
  0
LINE
  8
0
 10
270.323
 20
412.701
 11
272.685
 21
409.623
  0
LINE
  8
0
 10
272.685
 20
409.623
 11
267.925
 21
405.97
  0
LINE
  8
0
 10
267.925
 20
405.97
 11
265.563
 21
409.048
  0
LINE
  8
0
 10
387.315
 20
409.623
 11
389.677
 21
412.701
  0
LINE
  8
0
 10
389.677
 20
412.701
 11
394.437
 21
409.048
  0
LINE
  8
0
 10
394.437
 20
409.048
 11
392.075
 21
405.97
  0
LINE
  8
0
 10
392.075
 20
405.97
 11
387.315
 21
409.623
  0
LINE
  8
0
 10
196.916
 20
403.372
 11
199.916
 21
408.568
  0
LINE
  8
0
 10
199.916
 20
408.568
 11
203.276
 21
406.628
  0
LINE
  8
0
 10
203.276
 20
406.628
 11
200.276
 21
401.432
  0
LINE
  8
0
 10
200.276
 20
401.432
 11
196.916
 21
403.372
  0
LINE
  8
0
 10
456.724
 20
406.628
 11
460.084
 21
408.568
  0
LINE
  8
0
 10
460.084
 20
408.568
 11
463.084
 21
403.372
  0
LINE
  8
0
 10
463.084
 20
403.372
 11
459.724
 21
401.432
  0
LINE
  8
0
 10
459.724
 20
401.432
 11
456.724
 21
406.628
  0
LINE
  8
0
 10
405.97
 20
392.075
 11
409.048
 21
394.437
  0
LINE
  8
0
 10
409.048
 20
394.437
 11
412.701
 21
389.677
  0
LINE
  8
0
 10
412.701
 20
389.677
 11
409.623
 21
387.315
  0
LINE
  8
0
 10
409.623
 20
387.315
 11
405.97
 21
392.075
  0
LINE
  8
0
 10
247.299
 20
389.677
 11
250.952
 21
394.437
  0
LINE
  8
0
 10
250.952
 20
394.437
 11
254.03
 21
392.075
  0
LINE
  8
0
 10
254.03
 20
392.075
 11
250.377
 21
387.315
  0
LINE
  8
0
 10
250.377
 20
387.315
 11
247.299
 21
389.677
  0
LINE
  8
0
 10
182.461
 20
366.427
 11
184.014
 21
372.223
  0
LINE
  8
0
 10
184.014
 20
372.223
 11
187.761
 21
371.219
  0
LINE
  8
0
 10
187.761
 20
371.219
 11
186.209
 21
365.423
  0
LINE
  8
0
 10
186.209
 20
365.423
 11
182.461
 21
366.427
  0
LINE
  8
0
 10
472.239
 20
371.219
 11
475.986
 21
372.223
  0
LINE
  8
0
 10
475.986
 20
372.223
 11
477.539
 21
366.427
  0
LINE
  8
0
 10
477.539
 20
366.427
 11
473.791
 21
365.423
  0
LINE
  8
0
 10
473.791
 20
365.423
 11
472.239
 21
371.219
  0
LINE
  8
0
 10
234.672
 20
366.239
 11
236.968
 21
371.782
  0
LINE
  8
0
 10
236.968
 20
371.782
 11
240.552
 21
370.298
  0
LINE
  8
0
 10
240.552
 20
370.298
 11
238.256
 21
364.754
  0
LINE
  8
0
 10
238.256
 20
364.754
 11
234.672
 21
366.239
  0
LINE
  8
0
 10
419.448
 20
370.298
 11
423.032
 21
371.782
  0
LINE
  8
0
 10
423.032
 20
371.782
 11
425.328
 21
366.239
  0
LINE
  8
0
 10
425.328
 20
366.239
 11
421.744
 21
364.754
  0
LINE
  8
0
 10
421.744
 20
364.754
 11
419.448
 21
370.298
  0
LINE
  8
0
 10
426.829
 20
345.774
 11
430.676
 21
346.28
  0
LINE
  8
0
 10
430.676
 20
346.28
 11
431.459
 21
340.331
  0
LINE
  8
0
 10
431.459
 20
340.331
 11
427.613
 21
339.825
  0
LINE
  8
0
 10
427.613
 20
339.825
 11
426.829
 21
345.774
  0
LINE
  8
0
 10
228.541
 20
340.331
 11
229.324
 21
346.28
  0
LINE
  8
0
 10
229.324
 20
346.28
 11
233.171
 21
345.774
  0
LINE
  8
0
 10
233.171
 20
345.774
 11
232.387
 21
339.825
  0
LINE
  8
0
 10
232.387
 20
339.825
 11
228.541
 21
340.331
  0
LINE
  8
0
 10
478.06
 20
327
 11
478.06
 21
333
  0
LINE
  8
0
 10
478.06
 20
333
 11
481.94
 21
333
  0
LINE
  8
0
 10
481.94
 20
333
 11
481.94
 21
327
  0
LINE
  8
0
 10
481.94
 20
327
 11
478.06
 21
327
  0
LINE
  8
0
 10
178.06
 20
327
 11
178.06
 21
333
  0
LINE
  8
0
 10
178.06
 20
333
 11
181.94
 21
333
  0
LINE
  8
0
 10
181.94
 20
333
 11
181.94
 21
327
  0
LINE
  8
0
 10
181.94
 20
327
 11
178.06
 21
327
  0
LINE
  8
0
 10
228.541
 20
319.669
 11
232.387
 21
320.175
  0
LINE
  8
0
 10
232.387
 20
320.175
 11
233.171
 21
314.226
  0
LINE
  8
0
 10
233.171
 20
314.226
 11
229.324
 21
313.72
  0
LINE
  8
0
 10
229.324
 20
313.72
 11
228.541
 21
319.669
  0
LINE
  8
0
 10
426.829
 20
314.226
 11
427.613
 21
320.175
  0
LINE
  8
0
 10
427.613
 20
320.175
 11
431.459
 21
319.669
  0
LINE
  8
0
 10
431.459
 20
319.669
 11
430.676
 21
313.72
  0
LINE
  8
0
 10
430.676
 20
313.72
 11
426.829
 21
314.226
  0
LINE
  8
0
 10
234.672
 20
293.761
 11
238.256
 21
295.246
  0
LINE
  8
0
 10
238.256
 20
295.246
 11
240.552
 21
289.702
  0
LINE
  8
0
 10
240.552
 20
289.702
 11
236.968
 21
288.218
  0
LINE
  8
0
 10
236.968
 20
288.218
 11
234.672
 21
293.761
  0
LINE
  8
0
 10
419.448
 20
289.702
 11
421.744
 21
295.246
  0
LINE
  8
0
 10
421.744
 20
295.246
 11
425.328
 21
293.761
  0
LINE
  8
0
 10
425.328
 20
293.761
 11
423.032
 21
288.218
  0
LINE
  8
0
 10
423.032
 20
288.218
 11
419.448
 21
289.702
  0
LINE
  8
0
 10
472.239
 20
288.781
 11
473.791
 21
294.577
  0
LINE
  8
0
 10
473.791
 20
294.577
 11
477.539
 21
293.573
  0
LINE
  8
0
 10
477.539
 20
293.573
 11
475.986
 21
287.777
  0
LINE
  8
0
 10
475.986
 20
287.777
 11
472.239
 21
288.781
  0
LINE
  8
0
 10
182.461
 20
293.573
 11
186.209
 21
294.577
  0
LINE
  8
0
 10
186.209
 20
294.577
 11
187.761
 21
288.781
  0
LINE
  8
0
 10
187.761
 20
288.781
 11
184.014
 21
287.777
  0
LINE
  8
0
 10
184.014
 20
287.777
 11
182.461
 21
293.573
  0
LINE
  8
0
 10
247.299
 20
270.323
 11
250.377
 21
272.685
  0
LINE
  8
0
 10
250.377
 20
272.685
 11
254.03
 21
267.925
  0
LINE
  8
0
 10
254.03
 20
267.925
 11
250.952
 21
265.563
  0
LINE
  8
0
 10
250.952
 20
265.563
 11
247.299
 21
270.323
  0
LINE
  8
0
 10
405.97
 20
267.925
 11
409.623
 21
272.685
  0
LINE
  8
0
 10
409.623
 20
272.685
 11
412.701
 21
270.323
  0
LINE
  8
0
 10
412.701
 20
270.323
 11
409.048
 21
265.563
  0
LINE
  8
0
 10
409.048
 20
265.563
 11
405.97
 21
267.925
  0
LINE
  8
0
 10
456.724
 20
253.372
 11
459.724
 21
258.568
  0
LINE
  8
0
 10
459.724
 20
258.568
 11
463.084
 21
256.628
  0
LINE
  8
0
 10
463.084
 20
256.628
 11
460.084
 21
251.432
  0
LINE
  8
0
 10
460.084
 20
251.432
 11
456.724
 21
253.372
  0
LINE
  8
0
 10
196.916
 20
256.628
 11
200.276
 21
258.568
  0
LINE
  8
0
 10
200.276
 20
258.568
 11
203.276
 21
253.372
  0
LINE
  8
0
 10
203.276
 20
253.372
 11
199.916
 21
251.432
  0
LINE
  8
0
 10
199.916
 20
251.432
 11
196.916
 21
256.628
  0
LINE
  8
0
 10
265.563
 20
250.952
 11
267.925
 21
254.03
  0
LINE
  8
0
 10
267.925
 20
254.03
 11
272.685
 21
250.377
  0
LINE
  8
0
 10
272.685
 20
250.377
 11
270.323
 21
247.299
  0
LINE
  8
0
 10
270.323
 20
247.299
 11
265.563
 21
250.952
  0
LINE
  8
0
 10
387.315
 20
250.377
 11
392.075
 21
254.03
  0
LINE
  8
0
 10
392.075
 20
254.03
 11
394.437
 21
250.952
  0
LINE
  8
0
 10
394.437
 20
250.952
 11
389.677
 21
247.299
  0
LINE
  8
0
 10
389.677
 20
247.299
 11
387.315
 21
250.377
  0
LINE
  8
0
 10
288.218
 20
236.968
 11
289.702
 21
240.552
  0
LINE
  8
0
 10
289.702
 20
240.552
 11
295.246
 21
238.256
  0
LINE
  8
0
 10
295.246
 20
238.256
 11
293.761
 21
234.672
  0
LINE
  8
0
 10
293.761
 20
234.672
 11
288.218
 21
236.968
  0
LINE
  8
0
 10
364.754
 20
238.256
 11
370.298
 21
240.552
  0
LINE
  8
0
 10
370.298
 20
240.552
 11
371.782
 21
236.968
  0
LINE
  8
0
 10
371.782
 20
236.968
 11
366.239
 21
234.672
  0
LINE
  8
0
 10
366.239
 20
234.672
 11
364.754
 21
238.256
  0
LINE
  8
0
 10
313.72
 20
229.324
 11
314.226
 21
233.171
  0
LINE
  8
0
 10
314.226
 20
233.171
 11
320.175
 21
232.387
  0
LINE
  8
0
 10
320.175
 20
232.387
 11
319.669
 21
228.541
  0
LINE
  8
0
 10
319.669
 20
228.541
 11
313.72
 21
229.324
  0
LINE
  8
0
 10
339.825
 20
232.387
 11
345.774
 21
233.171
  0
LINE
  8
0
 10
345.774
 20
233.171
 11
346.28
 21
229.324
  0
LINE
  8
0
 10
346.28
 20
229.324
 11
340.331
 21
228.541
  0
LINE
  8
0
 10
340.331
 20
228.541
 11
339.825
 21
232.387
  0
LINE
  8
0
 10
432.573
 20
223.184
 11
436.816
 21
227.427
  0
LINE
  8
0
 10
436.816
 20
227.427
 11
439.559
 21
224.684
  0
LINE
  8
0
 10
439.559
 20
224.684
 11
435.316
 21
220.441
  0
LINE
  8
0
 10
435.316
 20
220.441
 11
432.573
 21
223.184
  0
LINE
  8
0
 10
220.441
 20
224.684
 11
223.184
 21
227.427
  0
LINE
  8
0
 10
223.184
 20
227.427
 11
227.427
 21
223.184
  0
LINE
  8
0
 10
227.427
 20
223.184
 11
224.684
 21
220.441
  0
LINE
  8
0
 10
224.684
 20
220.441
 11
220.441
 21
224.684
  0
LINE
  8
0
 10
401.432
 20
200.276
 11
406.628
 21
203.276
  0
LINE
  8
0
 10
406.628
 20
203.276
 11
408.568
 21
199.916
  0
LINE
  8
0
 10
408.568
 20
199.916
 11
403.372
 21
196.916
  0
LINE
  8
0
 10
403.372
 20
196.916
 11
401.432
 21
200.276
  0
LINE
  8
0
 10
251.432
 20
199.916
 11
253.372
 21
203.276
  0
LINE
  8
0
 10
253.372
 20
203.276
 11
258.568
 21
200.276
  0
LINE
  8
0
 10
258.568
 20
200.276
 11
256.628
 21
196.916
  0
LINE
  8
0
 10
256.628
 20
196.916
 11
251.432
 21
199.916
  0
LINE
  8
0
 10
365.423
 20
186.209
 11
371.219
 21
187.761
  0
LINE
  8
0
 10
371.219
 20
187.761
 11
372.223
 21
184.014
  0
LINE
  8
0
 10
372.223
 20
184.014
 11
366.427
 21
182.461
  0
LINE
  8
0
 10
366.427
 20
182.461
 11
365.423
 21
186.209
  0
LINE
  8
0
 10
287.777
 20
184.014
 11
288.781
 21
187.761
  0
LINE
  8
0
 10
288.781
 20
187.761
 11
294.577
 21
186.209
  0
LINE
  8
0
 10
294.577
 20
186.209
 11
293.573
 21
182.461
  0
LINE
  8
0
 10
293.573
 20
182.461
 11
287.777
 21
184.014
  0
LINE
  8
0
 10
327
 20
178.06
 11
327
 21
181.94
  0
LINE
  8
0
 10
327
 20
181.94
 11
333
 21
181.94
  0
LINE
  8
0
 10
333
 20
181.94
 11
333
 21
178.06
  0
LINE
  8
0
 10
333
 20
178.06
 11
327
 21
178.06
  0
LINE
  8
0
 10
125
 20
296.94
 11
129
 21
296.94
  0
LINE
  8
0
 10
129
 20
296.94
 11
129
 21
303.06
  0
LINE
  8
0
 10
129
 20
303.06
 11
125
 21
303.06
  0
LINE
  8
0
 10
125
 20
303.06
 11
125
 21
309
  0
LINE
  8
0
 10
125
 20
309
 11
-125
 21
309
  0
LINE
  8
0
 10
-125
 20
309
 11
-125
 21
303.06
  0
LINE
  8
0
 10
-125
 20
303.06
 11
-129
 21
303.06
  0
LINE
  8
0
 10
-129
 20
303.06
 11
-129
 21
296.94
  0
LINE
  8
0
 10
-129
 20
296.94
 11
-125
 21
296.94
  0
LINE
  8
0
 10
-125
 20
296.94
 11
-125
 21
291
  0
LINE
  8
0
 10
-125
 20
291
 11
125
 21
291
  0
LINE
  8
0
 10
125
 20
291
 11
125
 21
296.94
  0
LINE
  8
0
 10
-64.44
 20
297
 11
-64.44
 21
303
  0
LINE
  8
0
 10
-64.44
 20
303
 11
-60.56
 21
303
  0
LINE
  8
0
 10
-60.56
 20
303
 11
-60.56
 21
297
  0
LINE
  8
0
 10
-60.56
 20
297
 11
-64.44
 21
297
  0
LINE
  8
0
 10
60.56
 20
297
 11
60.56
 21
303
  0
LINE
  8
0
 10
60.56
 20
303
 11
64.44
 21
303
  0
LINE
  8
0
 10
64.44
 20
303
 11
64.44
 21
297
  0
LINE
  8
0
 10
64.44
 20
297
 11
60.56
 21
297
  0
LINE
  8
0
 10
369.988
 20
-149.236
 11
407.25
 21
-133.801
  0
LINE
  8
0
 10
407.25
 20
-133.801
 11
439.248
 21
-109.248
  0
LINE
  8
0
 10
439.248
 20
-109.248
 11
463.801
 21
-77.25
  0
LINE
  8
0
 10
463.801
 20
-77.25
 11
479.236
 21
-39.9875
  0
LINE
  8
0
 10
479.236
 20
-39.9875
 11
484.5
 21
0
  0
LINE
  8
0
 10
484.5
 20
0
 11
479.236
 21
39.9875
  0
LINE
  8
0
 10
479.236
 20
39.9875
 11
463.801
 21
77.25
  0
LINE
  8
0
 10
463.801
 20
77.25
 11
439.248
 21
109.248
  0
LINE
  8
0
 10
439.248
 20
109.248
 11
407.25
 21
133.801
  0
LINE
  8
0
 10
407.25
 20
133.801
 11
369.988
 21
149.236
  0
LINE
  8
0
 10
369.988
 20
149.236
 11
330
 21
154.5
  0
LINE
  8
0
 10
330
 20
154.5
 11
290.012
 21
149.236
  0
LINE
  8
0
 10
290.012
 20
149.236
 11
252.75
 21
133.801
  0
LINE
  8
0
 10
252.75
 20
133.801
 11
220.752
 21
109.248
  0
LINE
  8
0
 10
220.752
 20
109.248
 11
196.199
 21
77.25
  0
LINE
  8
0
 10
196.199
 20
77.25
 11
180.764
 21
39.9875
  0
LINE
  8
0
 10
180.764
 20
39.9875
 11
175.5
 21
0
  0
LINE
  8
0
 10
175.5
 20
0
 11
180.764
 21
-39.9875
  0
LINE
  8
0
 10
180.764
 20
-39.9875
 11
196.199
 21
-77.25
  0
LINE
  8
0
 10
196.199
 20
-77.25
 11
220.752
 21
-109.248
  0
LINE
  8
0
 10
220.752
 20
-109.248
 11
252.75
 21
-133.801
  0
LINE
  8
0
 10
252.75
 20
-133.801
 11
290.012
 21
-149.236
  0
LINE
  8
0
 10
290.012
 20
-149.236
 11
330
 21
-154.5
  0
LINE
  8
0
 10
330
 20
-154.5
 11
369.988
 21
-149.236
  0
LINE
  8
0
 10
327
 20
148.06
 11
327
 21
151.94
  0
LINE
  8
0
 10
327
 20
151.94
 11
333
 21
151.94
  0
LINE
  8
0
 10
333
 20
151.94
 11
333
 21
148.06
  0
LINE
  8
0
 10
333
 20
148.06
 11
327
 21
148.06
  0
LINE
  8
0
 10
365.423
 20
143.791
 11
366.427
 21
147.539
  0
LINE
  8
0
 10
366.427
 20
147.539
 11
372.223
 21
145.986
  0
LINE
  8
0
 10
372.223
 20
145.986
 11
371.219
 21
142.239
  0
LINE
  8
0
 10
371.219
 20
142.239
 11
365.423
 21
143.791
  0
LINE
  8
0
 10
287.777
 20
145.986
 11
293.573
 21
147.539
  0
LINE
  8
0
 10
293.573
 20
147.539
 11
294.577
 21
143.791
  0
LINE
  8
0
 10
294.577
 20
143.791
 11
288.781
 21
142.239
  0
LINE
  8
0
 10
288.781
 20
142.239
 11
287.777
 21
145.986
  0
LINE
  8
0
 10
401.432
 20
129.724
 11
403.372
 21
133.084
  0
LINE
  8
0
 10
403.372
 20
133.084
 11
408.568
 21
130.084
  0
LINE
  8
0
 10
408.568
 20
130.084
 11
406.628
 21
126.724
  0
LINE
  8
0
 10
406.628
 20
126.724
 11
401.432
 21
129.724
  0
LINE
  8
0
 10
251.432
 20
130.084
 11
256.628
 21
133.084
  0
LINE
  8
0
 10
256.628
 20
133.084
 11
258.568
 21
129.724
  0
LINE
  8
0
 10
258.568
 20
129.724
 11
253.372
 21
126.724
  0
LINE
  8
0
 10
253.372
 20
126.724
 11
251.432
 21
130.084
  0
LINE
  8
0
 10
220.441
 20
105.316
 11
224.684
 21
109.559
  0
LINE
  8
0
 10
224.684
 20
109.559
 11
227.427
 21
106.816
  0
LINE
  8
0
 10
227.427
 20
106.816
 11
223.184
 21
102.573
  0
LINE
  8
0
 10
223.184
 20
102.573
 11
220.441
 21
105.316
  0
LINE
  8
0
 10
432.573
 20
106.816
 11
435.316
 21
109.559
  0
LINE
  8
0
 10
435.316
 20
109.559
 11
439.559
 21
105.316
  0
LINE
  8
0
 10
439.559
 20
105.316
 11
436.816
 21
102.573
  0
LINE
  8
0
 10
436.816
 20
102.573
 11
432.573
 21
106.816
  0
LINE
  8
0
 10
339.825
 20
97.6127
 11
340.331
 21
101.459
  0
LINE
  8
0
 10
340.331
 20
101.459
 11
346.28
 21
100.676
  0
LINE
  8
0
 10
346.28
 20
100.676
 11
345.774
 21
96.8295
  0
LINE
  8
0
 10
345.774
 20
96.8295
 11
339.825
 21
97.6127
  0
LINE
  8
0
 10
313.72
 20
100.676
 11
319.669
 21
101.459
  0
LINE
  8
0
 10
319.669
 20
101.459
 11
320.175
 21
97.6127
  0
LINE
  8
0
 10
320.175
 20
97.6127
 11
314.226
 21
96.8295
  0
LINE
  8
0
 10
314.226
 20
96.8295
 11
313.72
 21
100.676
  0
LINE
  8
0
 10
364.754
 20
91.7437
 11
366.239
 21
95.3283
  0
LINE
  8
0
 10
366.239
 20
95.3283
 11
371.782
 21
93.0322
  0
LINE
  8
0
 10
371.782
 20
93.0322
 11
370.298
 21
89.4476
  0
LINE
  8
0
 10
370.298
 20
89.4476
 11
364.754
 21
91.7437
  0
LINE
  8
0
 10
288.218
 20
93.0322
 11
293.761
 21
95.3283
  0
LINE
  8
0
 10
293.761
 20
95.3283
 11
295.246
 21
91.7437
  0
LINE
  8
0
 10
295.246
 20
91.7437
 11
289.702
 21
89.4476
  0
LINE
  8
0
 10
289.702
 20
89.4476
 11
288.218
 21
93.0322
  0
LINE
  8
0
 10
387.315
 20
79.6225
 11
389.677
 21
82.7007
  0
LINE
  8
0
 10
389.677
 20
82.7007
 11
394.437
 21
79.0481
  0
LINE
  8
0
 10
394.437
 20
79.0481
 11
392.075
 21
75.9699
  0
LINE
  8
0
 10
392.075
 20
75.9699
 11
387.315
 21
79.6225
  0
LINE
  8
0
 10
265.563
 20
79.0481
 11
270.323
 21
82.7007
  0
LINE
  8
0
 10
270.323
 20
82.7007
 11
272.685
 21
79.6225
  0
LINE
  8
0
 10
272.685
 20
79.6225
 11
267.925
 21
75.9699
  0
LINE
  8
0
 10
267.925
 20
75.9699
 11
265.563
 21
79.0481
  0
LINE
  8
0
 10
456.724
 20
76.6281
 11
460.084
 21
78.5681
  0
LINE
  8
0
 10
460.084
 20
78.5681
 11
463.084
 21
73.3719
  0
LINE
  8
0
 10
463.084
 20
73.3719
 11
459.724
 21
71.4319
  0
LINE
  8
0
 10
459.724
 20
71.4319
 11
456.724
 21
76.6281
  0
LINE
  8
0
 10
196.916
 20
73.3719
 11
199.916
 21
78.5681
  0
LINE
  8
0
 10
199.916
 20
78.5681
 11
203.276
 21
76.6281
  0
LINE
  8
0
 10
203.276
 20
76.6281
 11
200.276
 21
71.4319
  0
LINE
  8
0
 10
200.276
 20
71.4319
 11
196.916
 21
73.3719
  0
LINE
  8
0
 10
247.299
 20
59.6771
 11
250.952
 21
64.4372
  0
LINE
  8
0
 10
250.952
 20
64.4372
 11
254.03
 21
62.0752
  0
LINE
  8
0
 10
254.03
 20
62.0752
 11
250.377
 21
57.3151
  0
LINE
  8
0
 10
250.377
 20
57.3151
 11
247.299
 21
59.6771
  0
LINE
  8
0
 10
405.97
 20
62.0752
 11
409.048
 21
64.4372
  0
LINE
  8
0
 10
409.048
 20
64.4372
 11
412.701
 21
59.6771
  0
LINE
  8
0
 10
412.701
 20
59.6771
 11
409.623
 21
57.3151
  0
LINE
  8
0
 10
409.623
 20
57.3151
 11
405.97
 21
62.0752
  0
LINE
  8
0
 10
472.239
 20
41.2185
 11
475.986
 21
42.2227
  0
LINE
  8
0
 10
475.986
 20
42.2227
 11
477.539
 21
36.4272
  0
LINE
  8
0
 10
477.539
 20
36.4272
 11
473.791
 21
35.423
  0
LINE
  8
0
 10
473.791
 20
35.423
 11
472.239
 21
41.2185
  0
LINE
  8
0
 10
182.461
 20
36.4272
 11
184.014
 21
42.2227
  0
LINE
  8
0
 10
184.014
 20
42.2227
 11
187.761
 21
41.2185
  0
LINE
  8
0
 10
187.761
 20
41.2185
 11
186.209
 21
35.423
  0
LINE
  8
0
 10
186.209
 20
35.423
 11
182.461
 21
36.4272
  0
LINE
  8
0
 10
419.448
 20
40.2976
 11
423.032
 21
41.7824
  0
LINE
  8
0
 10
423.032
 20
41.7824
 11
425.328
 21
36.2391
  0
LINE
  8
0
 10
425.328
 20
36.2391
 11
421.744
 21
34.7543
  0
LINE
  8
0
 10
421.744
 20
34.7543
 11
419.448
 21
40.2976
  0
LINE
  8
0
 10
234.672
 20
36.2391
 11
236.968
 21
41.7824
  0
LINE
  8
0
 10
236.968
 20
41.7824
 11
240.552
 21
40.2976
  0
LINE
  8
0
 10
240.552
 20
40.2976
 11
238.256
 21
34.7543
  0
LINE
  8
0
 10
238.256
 20
34.7543
 11
234.672
 21
36.2391
  0
LINE
  8
0
 10
324.824
 20
-19.3185
 11
320
 21
-17.3205
  0
LINE
  8
0
 10
320
 20
-17.3205
 11
315.858
 21
-14.1421
  0
LINE
  8
0
 10
315.858
 20
-14.1421
 11
312.68
 21
-9.99998
  0
LINE
  8
0
 10
312.68
 20
-9.99998
 11
310.681
 21
-5.17638
  0
LINE
  8
0
 10
310.681
 20
-5.17638
 11
310
 21
0
  0
LINE
  8
0
 10
310
 20
0
 11
310.681
 21
5.17638
  0
LINE
  8
0
 10
310.681
 20
5.17638
 11
312.68
 21
9.99998
  0
LINE
  8
0
 10
312.68
 20
9.99998
 11
315.858
 21
14.1421
  0
LINE
  8
0
 10
315.858
 20
14.1421
 11
320
 21
17.3205
  0
LINE
  8
0
 10
320
 20
17.3205
 11
324.824
 21
19.3185
  0
LINE
  8
0
 10
324.824
 20
19.3185
 11
330
 21
20
  0
LINE
  8
0
 10
330
 20
20
 11
335.176
 21
19.3185
  0
LINE
  8
0
 10
335.176
 20
19.3185
 11
340
 21
17.3205
  0
LINE
  8
0
 10
340
 20
17.3205
 11
344.142
 21
14.1421
  0
LINE
  8
0
 10
344.142
 20
14.1421
 11
347.32
 21
9.99998
  0
LINE
  8
0
 10
347.32
 20
9.99998
 11
349.319
 21
5.17638
  0
LINE
  8
0
 10
349.319
 20
5.17638
 11
350
 21
0
  0
LINE
  8
0
 10
350
 20
0
 11
349.319
 21
-5.17638
  0
LINE
  8
0
 10
349.319
 20
-5.17638
 11
347.32
 21
-10
  0
LINE
  8
0
 10
347.32
 20
-10
 11
344.142
 21
-14.1421
  0
LINE
  8
0
 10
344.142
 20
-14.1421
 11
340
 21
-17.3205
  0
LINE
  8
0
 10
340
 20
-17.3205
 11
335.176
 21
-19.3185
  0
LINE
  8
0
 10
335.176
 20
-19.3185
 11
330
 21
-20
  0
LINE
  8
0
 10
330
 20
-20
 11
324.824
 21
-19.3185
  0
LINE
  8
0
 10
228.541
 20
10.3315
 11
229.324
 21
16.2802
  0
LINE
  8
0
 10
229.324
 20
16.2802
 11
233.171
 21
15.7737
  0
LINE
  8
0
 10
233.171
 20
15.7737
 11
232.387
 21
9.82506
  0
LINE
  8
0
 10
232.387
 20
9.82506
 11
228.541
 21
10.3315
  0
LINE
  8
0
 10
426.829
 20
15.7737
 11
430.676
 21
16.2802
  0
LINE
  8
0
 10
430.676
 20
16.2802
 11
431.459
 21
10.3315
  0
LINE
  8
0
 10
431.459
 20
10.3315
 11
427.613
 21
9.82506
  0
LINE
  8
0
 10
427.613
 20
9.82506
 11
426.829
 21
15.7737
  0
LINE
  8
0
 10
478.06
 20
-3
 11
478.06
 21
3
  0
LINE
  8
0
 10
478.06
 20
3
 11
481.94
 21
3
  0
LINE
  8
0
 10
481.94
 20
3
 11
481.94
 21
-3
  0
LINE
  8
0
 10
481.94
 20
-3
 11
478.06
 21
-3
  0
LINE
  8
0
 10
178.06
 20
-2.99998
 11
178.06
 21
3
  0
LINE
  8
0
 10
178.06
 20
3
 11
181.94
 21
3
  0
LINE
  8
0
 10
181.94
 20
3
 11
181.94
 21
-2.99998
  0
LINE
  8
0
 10
181.94
 20
-2.99998
 11
178.06
 21
-2.99998
  0
LINE
  8
0
 10
426.829
 20
-15.7737
 11
427.613
 21
-9.82506
  0
LINE
  8
0
 10
427.613
 20
-9.82506
 11
431.459
 21
-10.3315
  0
LINE
  8
0
 10
431.459
 20
-10.3315
 11
430.676
 21
-16.2802
  0
LINE
  8
0
 10
430.676
 20
-16.2802
 11
426.829
 21
-15.7737
  0
LINE
  8
0
 10
228.541
 20
-10.3315
 11
232.387
 21
-9.82506
  0
LINE
  8
0
 10
232.387
 20
-9.82506
 11
233.171
 21
-15.7737
  0
LINE
  8
0
 10
233.171
 20
-15.7737
 11
229.324
 21
-16.2802
  0
LINE
  8
0
 10
229.324
 20
-16.2802
 11
228.541
 21
-10.3315
  0
LINE
  8
0
 10
234.672
 20
-36.2391
 11
238.256
 21
-34.7543
  0
LINE
  8
0
 10
238.256
 20
-34.7543
 11
240.552
 21
-40.2976
  0
LINE
  8
0
 10
240.552
 20
-40.2976
 11
236.968
 21
-41.7824
  0
LINE
  8
0
 10
236.968
 20
-41.7824
 11
234.672
 21
-36.2391
  0
LINE
  8
0
 10
419.448
 20
-40.2976
 11
421.744
 21
-34.7543
  0
LINE
  8
0
 10
421.744
 20
-34.7543
 11
425.328
 21
-36.2391
  0
LINE
  8
0
 10
425.328
 20
-36.2391
 11
423.032
 21
-41.7824
  0
LINE
  8
0
 10
423.032
 20
-41.7824
 11
419.448
 21
-40.2976
  0
LINE
  8
0
 10
182.461
 20
-36.4272
 11
186.209
 21
-35.423
  0
LINE
  8
0
 10
186.209
 20
-35.423
 11
187.761
 21
-41.2185
  0
LINE
  8
0
 10
187.761
 20
-41.2185
 11
184.014
 21
-42.2227
  0
LINE
  8
0
 10
184.014
 20
-42.2227
 11
182.461
 21
-36.4272
  0
LINE
  8
0
 10
472.239
 20
-41.2185
 11
473.791
 21
-35.423
  0
LINE
  8
0
 10
473.791
 20
-35.423
 11
477.539
 21
-36.4272
  0
LINE
  8
0
 10
477.539
 20
-36.4272
 11
475.986
 21
-42.2227
  0
LINE
  8
0
 10
475.986
 20
-42.2227
 11
472.239
 21
-41.2185
  0
LINE
  8
0
 10
247.299
 20
-59.6771
 11
250.377
 21
-57.3151
  0
LINE
  8
0
 10
250.377
 20
-57.3151
 11
254.03
 21
-62.0752
  0
LINE
  8
0
 10
254.03
 20
-62.0752
 11
250.952
 21
-64.4372
  0
LINE
  8
0
 10
250.952
 20
-64.4372
 11
247.299
 21
-59.6771
  0
LINE
  8
0
 10
405.97
 20
-62.0752
 11
409.623
 21
-57.3151
  0
LINE
  8
0
 10
409.623
 20
-57.3151
 11
412.701
 21
-59.6771
  0
LINE
  8
0
 10
412.701
 20
-59.6771
 11
409.048
 21
-64.4372
  0
LINE
  8
0
 10
409.048
 20
-64.4372
 11
405.97
 21
-62.0752
  0
LINE
  8
0
 10
196.916
 20
-73.3719
 11
200.276
 21
-71.4319
  0
LINE
  8
0
 10
200.276
 20
-71.4319
 11
203.276
 21
-76.6281
  0
LINE
  8
0
 10
203.276
 20
-76.6281
 11
199.916
 21
-78.5681
  0
LINE
  8
0
 10
199.916
 20
-78.5681
 11
196.916
 21
-73.3719
  0
LINE
  8
0
 10
456.724
 20
-76.6281
 11
459.724
 21
-71.4319
  0
LINE
  8
0
 10
459.724
 20
-71.4319
 11
463.084
 21
-73.3719
  0
LINE
  8
0
 10
463.084
 20
-73.3719
 11
460.084
 21
-78.5681
  0
LINE
  8
0
 10
460.084
 20
-78.5681
 11
456.724
 21
-76.6281
  0
LINE
  8
0
 10
387.315
 20
-79.6225
 11
392.075
 21
-75.9699
  0
LINE
  8
0
 10
392.075
 20
-75.9699
 11
394.437
 21
-79.0481
  0
LINE
  8
0
 10
394.437
 20
-79.0481
 11
389.677
 21
-82.7007
  0
LINE
  8
0
 10
389.677
 20
-82.7007
 11
387.315
 21
-79.6225
  0
LINE
  8
0
 10
265.563
 20
-79.0481
 11
267.925
 21
-75.9699
  0
LINE
  8
0
 10
267.925
 20
-75.9699
 11
272.685
 21
-79.6225
  0
LINE
  8
0
 10
272.685
 20
-79.6225
 11
270.323
 21
-82.7007
  0
LINE
  8
0
 10
270.323
 20
-82.7007
 11
265.563
 21
-79.0481
  0
LINE
  8
0
 10
364.754
 20
-91.7437
 11
370.298
 21
-89.4476
  0
LINE
  8
0
 10
370.298
 20
-89.4476
 11
371.782
 21
-93.0322
  0
LINE
  8
0
 10
371.782
 20
-93.0322
 11
366.239
 21
-95.3283
  0
LINE
  8
0
 10
366.239
 20
-95.3283
 11
364.754
 21
-91.7437
  0
LINE
  8
0
 10
288.218
 20
-93.0322
 11
289.702
 21
-89.4476
  0
LINE
  8
0
 10
289.702
 20
-89.4476
 11
295.246
 21
-91.7437
  0
LINE
  8
0
 10
295.246
 20
-91.7437
 11
293.761
 21
-95.3283
  0
LINE
  8
0
 10
293.761
 20
-95.3283
 11
288.218
 21
-93.0322
  0
LINE
  8
0
 10
313.72
 20
-100.676
 11
314.226
 21
-96.8295
  0
LINE
  8
0
 10
314.226
 20
-96.8295
 11
320.175
 21
-97.6127
  0
LINE
  8
0
 10
320.175
 20
-97.6127
 11
319.669
 21
-101.459
  0
LINE
  8
0
 10
319.669
 20
-101.459
 11
313.72
 21
-100.676
  0
LINE
  8
0
 10
339.825
 20
-97.6127
 11
345.774
 21
-96.8295
  0
LINE
  8
0
 10
345.774
 20
-96.8295
 11
346.28
 21
-100.676
  0
LINE
  8
0
 10
346.28
 20
-100.676
 11
340.331
 21
-101.459
  0
LINE
  8
0
 10
340.331
 20
-101.459
 11
339.825
 21
-97.6127
  0
LINE
  8
0
 10
432.573
 20
-106.816
 11
436.816
 21
-102.573
  0
LINE
  8
0
 10
436.816
 20
-102.573
 11
439.559
 21
-105.316
  0
LINE
  8
0
 10
439.559
 20
-105.316
 11
435.316
 21
-109.559
  0
LINE
  8
0
 10
435.316
 20
-109.559
 11
432.573
 21
-106.816
  0
LINE
  8
0
 10
220.441
 20
-105.316
 11
223.184
 21
-102.573
  0
LINE
  8
0
 10
223.184
 20
-102.573
 11
227.427
 21
-106.816
  0
LINE
  8
0
 10
227.427
 20
-106.816
 11
224.684
 21
-109.559
  0
LINE
  8
0
 10
224.684
 20
-109.559
 11
220.441
 21
-105.316
  0
LINE
  8
0
 10
401.432
 20
-129.724
 11
406.628
 21
-126.724
  0
LINE
  8
0
 10
406.628
 20
-126.724
 11
408.568
 21
-130.084
  0
LINE
  8
0
 10
408.568
 20
-130.084
 11
403.372
 21
-133.084
  0
LINE
  8
0
 10
403.372
 20
-133.084
 11
401.432
 21
-129.724
  0
LINE
  8
0
 10
251.432
 20
-130.084
 11
253.372
 21
-126.724
  0
LINE
  8
0
 10
253.372
 20
-126.724
 11
258.568
 21
-129.724
  0
LINE
  8
0
 10
258.568
 20
-129.724
 11
256.628
 21
-133.084
  0
LINE
  8
0
 10
256.628
 20
-133.084
 11
251.432
 21
-130.084
  0
LINE
  8
0
 10
287.777
 20
-145.986
 11
288.781
 21
-142.239
  0
LINE
  8
0
 10
288.781
 20
-142.239
 11
294.577
 21
-143.791
  0
LINE
  8
0
 10
294.577
 20
-143.791
 11
293.573
 21
-147.539
  0
LINE
  8
0
 10
293.573
 20
-147.539
 11
287.777
 21
-145.986
  0
LINE
  8
0
 10
365.423
 20
-143.791
 11
371.219
 21
-142.239
  0
LINE
  8
0
 10
371.219
 20
-142.239
 11
372.223
 21
-145.986
  0
LINE
  8
0
 10
372.223
 20
-145.986
 11
366.427
 21
-147.539
  0
LINE
  8
0
 10
366.427
 20
-147.539
 11
365.423
 21
-143.791
  0
LINE
  8
0
 10
327
 20
-151.94
 11
327
 21
-148.06
  0
LINE
  8
0
 10
327
 20
-148.06
 11
333
 21
-148.06
  0
LINE
  8
0
 10
333
 20
-148.06
 11
333
 21
-151.94
  0
LINE
  8
0
 10
333
 20
-151.94
 11
327
 21
-151.94
  0
LINE
  8
0
 10
22.8816
 20
-150.36
 11
22.3456
 21
-146.288
  0
LINE
  8
0
 10
22.3456
 20
-146.288
 11
38.6236
 21
-144.145
  0
LINE
  8
0
 10
38.6236
 20
-144.145
 11
53.7922
 21
-137.862
  0
LINE
  8
0
 10
53.7922
 20
-137.862
 11
55.3638
 21
-141.656
  0
LINE
  8
0
 10
55.3638
 20
-141.656
 11
61.0179
 21
-139.314
  0
LINE
  8
0
 10
61.0179
 20
-139.314
 11
59.4464
 21
-135.52
  0
LINE
  8
0
 10
59.4464
 20
-135.52
 11
74.615
 21
-129.237
  0
LINE
  8
0
 10
74.615
 20
-129.237
 11
87.6406
 21
-119.242
  0
LINE
  8
0
 10
87.6406
 20
-119.242
 11
90.1406
 21
-122.5
  0
LINE
  8
0
 10
90.1406
 20
-122.5
 11
94.9959
 21
-118.774
  0
LINE
  8
0
 10
94.9959
 20
-118.774
 11
92.4959
 21
-115.516
  0
LINE
  8
0
 10
92.4959
 20
-115.516
 11
105.522
 21
-105.522
  0
LINE
  8
0
 10
105.522
 20
-105.522
 11
115.516
 21
-92.4959
  0
LINE
  8
0
 10
115.516
 20
-92.4959
 11
118.774
 21
-94.9959
  0
LINE
  8
0
 10
118.774
 20
-94.9959
 11
122.5
 21
-90.1406
  0
LINE
  8
0
 10
122.5
 20
-90.1406
 11
119.242
 21
-87.6406
  0
LINE
  8
0
 10
119.242
 20
-87.6406
 11
129.237
 21
-74.615
  0
LINE
  8
0
 10
129.237
 20
-74.615
 11
135.52
 21
-59.4464
  0
LINE
  8
0
 10
135.52
 20
-59.4464
 11
139.314
 21
-61.0179
  0
LINE
  8
0
 10
139.314
 20
-61.0179
 11
141.656
 21
-55.3638
  0
LINE
  8
0
 10
141.656
 20
-55.3638
 11
137.862
 21
-53.7922
  0
LINE
  8
0
 10
137.862
 20
-53.7922
 11
144.145
 21
-38.6236
  0
LINE
  8
0
 10
144.145
 20
-38.6236
 11
146.288
 21
-22.3456
  0
LINE
  8
0
 10
146.288
 20
-22.3456
 11
150.36
 21
-22.8816
  0
LINE
  8
0
 10
150.36
 20
-22.8816
 11
151.159
 21
-16.814
  0
LINE
  8
0
 10
151.159
 20
-16.814
 11
147.087
 21
-16.278
  0
LINE
  8
0
 10
147.087
 20
-16.278
 11
149.23
 21
0
  0
LINE
  8
0
 10
149.23
 20
0
 11
147.087
 21
16.278
  0
LINE
  8
0
 10
147.087
 20
16.278
 11
151.159
 21
16.814
  0
LINE
  8
0
 10
151.159
 20
16.814
 11
150.36
 21
22.8816
  0
LINE
  8
0
 10
150.36
 20
22.8816
 11
146.288
 21
22.3456
  0
LINE
  8
0
 10
146.288
 20
22.3456
 11
144.145
 21
38.6236
  0
LINE
  8
0
 10
144.145
 20
38.6236
 11
137.862
 21
53.7922
  0
LINE
  8
0
 10
137.862
 20
53.7922
 11
141.656
 21
55.3638
  0
LINE
  8
0
 10
141.656
 20
55.3638
 11
139.314
 21
61.0179
  0
LINE
  8
0
 10
139.314
 20
61.0179
 11
135.52
 21
59.4464
  0
LINE
  8
0
 10
135.52
 20
59.4464
 11
129.237
 21
74.615
  0
LINE
  8
0
 10
129.237
 20
74.615
 11
119.242
 21
87.6406
  0
LINE
  8
0
 10
119.242
 20
87.6406
 11
122.5
 21
90.1406
  0
LINE
  8
0
 10
122.5
 20
90.1406
 11
118.774
 21
94.9959
  0
LINE
  8
0
 10
118.774
 20
94.9959
 11
115.516
 21
92.4959
  0
LINE
  8
0
 10
115.516
 20
92.4959
 11
105.522
 21
105.522
  0
LINE
  8
0
 10
105.522
 20
105.522
 11
92.4959
 21
115.516
  0
LINE
  8
0
 10
92.4959
 20
115.516
 11
94.9959
 21
118.774
  0
LINE
  8
0
 10
94.9959
 20
118.774
 11
90.1406
 21
122.5
  0
LINE
  8
0
 10
90.1406
 20
122.5
 11
87.6406
 21
119.242
  0
LINE
  8
0
 10
87.6406
 20
119.242
 11
74.615
 21
129.237
  0
LINE
  8
0
 10
74.615
 20
129.237
 11
59.4464
 21
135.52
  0
LINE
  8
0
 10
59.4464
 20
135.52
 11
61.0179
 21
139.314
  0
LINE
  8
0
 10
61.0179
 20
139.314
 11
55.3638
 21
141.656
  0
LINE
  8
0
 10
55.3638
 20
141.656
 11
53.7922
 21
137.862
  0
LINE
  8
0
 10
53.7922
 20
137.862
 11
38.6236
 21
144.145
  0
LINE
  8
0
 10
38.6236
 20
144.145
 11
22.3456
 21
146.288
  0
LINE
  8
0
 10
22.3456
 20
146.288
 11
22.8816
 21
150.36
  0
LINE
  8
0
 10
22.8816
 20
150.36
 11
16.814
 21
151.159
  0
LINE
  8
0
 10
16.814
 20
151.159
 11
16.278
 21
147.087
  0
LINE
  8
0
 10
16.278
 20
147.087
 11
0
 21
149.23
  0
LINE
  8
0
 10
0
 20
149.23
 11
-16.278
 21
147.087
  0
LINE
  8
0
 10
-16.278
 20
147.087
 11
-16.814
 21
151.159
  0
LINE
  8
0
 10
-16.814
 20
151.159
 11
-22.8816
 21
150.36
  0
LINE
  8
0
 10
-22.8816
 20
150.36
 11
-22.3456
 21
146.288
  0
LINE
  8
0
 10
-22.3456
 20
146.288
 11
-38.6236
 21
144.145
  0
LINE
  8
0
 10
-38.6236
 20
144.145
 11
-53.7922
 21
137.862
  0
LINE
  8
0
 10
-53.7922
 20
137.862
 11
-55.3638
 21
141.656
  0
LINE
  8
0
 10
-55.3638
 20
141.656
 11
-61.0179
 21
139.314
  0
LINE
  8
0
 10
-61.0179
 20
139.314
 11
-59.4464
 21
135.52
  0
LINE
  8
0
 10
-59.4464
 20
135.52
 11
-74.615
 21
129.237
  0
LINE
  8
0
 10
-74.615
 20
129.237
 11
-87.6406
 21
119.242
  0
LINE
  8
0
 10
-87.6406
 20
119.242
 11
-90.1406
 21
122.5
  0
LINE
  8
0
 10
-90.1406
 20
122.5
 11
-94.9959
 21
118.774
  0
LINE
  8
0
 10
-94.9959
 20
118.774
 11
-92.4959
 21
115.516
  0
LINE
  8
0
 10
-92.4959
 20
115.516
 11
-105.522
 21
105.522
  0
LINE
  8
0
 10
-105.522
 20
105.522
 11
-115.516
 21
92.4959
  0
LINE
  8
0
 10
-115.516
 20
92.4959
 11
-118.774
 21
94.9959
  0
LINE
  8
0
 10
-118.774
 20
94.9959
 11
-122.5
 21
90.1406
  0
LINE
  8
0
 10
-122.5
 20
90.1406
 11
-119.242
 21
87.6406
  0
LINE
  8
0
 10
-119.242
 20
87.6406
 11
-129.237
 21
74.615
  0
LINE
  8
0
 10
-129.237
 20
74.615
 11
-135.52
 21
59.4464
  0
LINE
  8
0
 10
-135.52
 20
59.4464
 11
-139.314
 21
61.0179
  0
LINE
  8
0
 10
-139.314
 20
61.0179
 11
-141.656
 21
55.3638
  0
LINE
  8
0
 10
-141.656
 20
55.3638
 11
-137.862
 21
53.7922
  0
LINE
  8
0
 10
-137.862
 20
53.7922
 11
-144.145
 21
38.6236
  0
LINE
  8
0
 10
-144.145
 20
38.6236
 11
-146.288
 21
22.3456
  0
LINE
  8
0
 10
-146.288
 20
22.3456
 11
-150.36
 21
22.8816
  0
LINE
  8
0
 10
-150.36
 20
22.8816
 11
-151.159
 21
16.814
  0
LINE
  8
0
 10
-151.159
 20
16.814
 11
-147.087
 21
16.278
  0
LINE
  8
0
 10
-147.087
 20
16.278
 11
-149.23
 21
0
  0
LINE
  8
0
 10
-149.23
 20
0
 11
-147.087
 21
-16.278
  0
LINE
  8
0
 10
-147.087
 20
-16.278
 11
-151.159
 21
-16.814
  0
LINE
  8
0
 10
-151.159
 20
-16.814
 11
-150.36
 21
-22.8816
  0
LINE
  8
0
 10
-150.36
 20
-22.8816
 11
-146.288
 21
-22.3456
  0
LINE
  8
0
 10
-146.288
 20
-22.3456
 11
-144.145
 21
-38.6236
  0
LINE
  8
0
 10
-144.145
 20
-38.6236
 11
-137.862
 21
-53.7922
  0
LINE
  8
0
 10
-137.862
 20
-53.7922
 11
-141.656
 21
-55.3638
  0
LINE
  8
0
 10
-141.656
 20
-55.3638
 11
-139.314
 21
-61.0179
  0
LINE
  8
0
 10
-139.314
 20
-61.0179
 11
-135.52
 21
-59.4464
  0
LINE
  8
0
 10
-135.52
 20
-59.4464
 11
-129.237
 21
-74.615
  0
LINE
  8
0
 10
-129.237
 20
-74.615
 11
-119.242
 21
-87.6406
  0
LINE
  8
0
 10
-119.242
 20
-87.6406
 11
-122.5
 21
-90.1406
  0
LINE
  8
0
 10
-122.5
 20
-90.1406
 11
-118.774
 21
-94.9959
  0
LINE
  8
0
 10
-118.774
 20
-94.9959
 11
-115.516
 21
-92.4959
  0
LINE
  8
0
 10
-115.516
 20
-92.4959
 11
-105.522
 21
-105.522
  0
LINE
  8
0
 10
-105.522
 20
-105.522
 11
-92.4959
 21
-115.516
  0
LINE
  8
0
 10
-92.4959
 20
-115.516
 11
-94.9959
 21
-118.774
  0
LINE
  8
0
 10
-94.9959
 20
-118.774
 11
-90.1406
 21
-122.5
  0
LINE
  8
0
 10
-90.1406
 20
-122.5
 11
-87.6406
 21
-119.242
  0
LINE
  8
0
 10
-87.6406
 20
-119.242
 11
-74.615
 21
-129.237
  0
LINE
  8
0
 10
-74.615
 20
-129.237
 11
-59.4464
 21
-135.52
  0
LINE
  8
0
 10
-59.4464
 20
-135.52
 11
-61.0179
 21
-139.314
  0
LINE
  8
0
 10
-61.0179
 20
-139.314
 11
-55.3638
 21
-141.656
  0
LINE
  8
0
 10
-55.3638
 20
-141.656
 11
-53.7922
 21
-137.862
  0
LINE
  8
0
 10
-53.7922
 20
-137.862
 11
-38.6236
 21
-144.145
  0
LINE
  8
0
 10
-38.6236
 20
-144.145
 11
-22.3456
 21
-146.288
  0
LINE
  8
0
 10
-22.3456
 20
-146.288
 11
-22.8816
 21
-150.36
  0
LINE
  8
0
 10
-22.8816
 20
-150.36
 11
-16.814
 21
-151.159
  0
LINE
  8
0
 10
-16.814
 20
-151.159
 11
-16.278
 21
-147.087
  0
LINE
  8
0
 10
-16.278
 20
-147.087
 11
0
 21
-149.23
  0
LINE
  8
0
 10
0
 20
-149.23
 11
16.278
 21
-147.087
  0
LINE
  8
0
 10
16.278
 20
-147.087
 11
16.814
 21
-151.159
  0
LINE
  8
0
 10
16.814
 20
-151.159
 11
22.8816
 21
-150.36
  0
LINE
  8
0
 10
-18.2737
 20
-138.802
 11
-36.2347
 21
-135.23
  0
LINE
  8
0
 10
-36.2347
 20
-135.23
 11
-53.5757
 21
-129.343
  0
LINE
  8
0
 10
-53.5757
 20
-129.343
 11
-70
 21
-121.244
  0
LINE
  8
0
 10
-70
 20
-121.244
 11
-85.2266
 21
-111.069
  0
LINE
  8
0
 10
-85.2266
 20
-111.069
 11
-98.9949
 21
-98.9949
  0
LINE
  8
0
 10
-98.9949
 20
-98.9949
 11
-111.069
 21
-85.2266
  0
LINE
  8
0
 10
-111.069
 20
-85.2266
 11
-121.244
 21
-70
  0
LINE
  8
0
 10
-121.244
 20
-70
 11
-129.343
 21
-53.5757
  0
LINE
  8
0
 10
-129.343
 20
-53.5757
 11
-135.23
 21
-36.2347
  0
LINE
  8
0
 10
-135.23
 20
-36.2347
 11
-138.802
 21
-18.2737
  0
LINE
  8
0
 10
-138.802
 20
-18.2737
 11
-140
 21
0
  0
LINE
  8
0
 10
-140
 20
0
 11
-138.802
 21
18.2737
  0
LINE
  8
0
 10
-138.802
 20
18.2737
 11
-135.23
 21
36.2347
  0
LINE
  8
0
 10
-135.23
 20
36.2347
 11
-129.343
 21
53.5757
  0
LINE
  8
0
 10
-129.343
 20
53.5757
 11
-121.244
 21
70
  0
LINE
  8
0
 10
-121.244
 20
70
 11
-111.069
 21
85.2266
  0
LINE
  8
0
 10
-111.069
 20
85.2266
 11
-98.9949
 21
98.9949
  0
LINE
  8
0
 10
-98.9949
 20
98.9949
 11
-85.2266
 21
111.069
  0
LINE
  8
0
 10
-85.2266
 20
111.069
 11
-70
 21
121.244
  0
LINE
  8
0
 10
-70
 20
121.244
 11
-53.5757
 21
129.343
  0
LINE
  8
0
 10
-53.5757
 20
129.343
 11
-36.2347
 21
135.23
  0
LINE
  8
0
 10
-36.2347
 20
135.23
 11
-18.2737
 21
138.802
  0
LINE
  8
0
 10
-18.2737
 20
138.802
 11
0
 21
140
  0
LINE
  8
0
 10
0
 20
140
 11
18.2737
 21
138.802
  0
LINE
  8
0
 10
18.2737
 20
138.802
 11
36.2347
 21
135.23
  0
LINE
  8
0
 10
36.2347
 20
135.23
 11
53.5757
 21
129.343
  0
LINE
  8
0
 10
53.5757
 20
129.343
 11
70
 21
121.244
  0
LINE
  8
0
 10
70
 20
121.244
 11
85.2266
 21
111.069
  0
LINE
  8
0
 10
85.2266
 20
111.069
 11
98.9949
 21
98.9949
  0
LINE
  8
0
 10
98.9949
 20
98.9949
 11
111.069
 21
85.2266
  0
LINE
  8
0
 10
111.069
 20
85.2266
 11
121.244
 21
70
  0
LINE
  8
0
 10
121.244
 20
70
 11
129.343
 21
53.5757
  0
LINE
  8
0
 10
129.343
 20
53.5757
 11
135.23
 21
36.2347
  0
LINE
  8
0
 10
135.23
 20
36.2347
 11
138.802
 21
18.2737
  0
LINE
  8
0
 10
138.802
 20
18.2737
 11
140
 21
0
  0
LINE
  8
0
 10
140
 20
0
 11
138.802
 21
-18.2737
  0
LINE
  8
0
 10
138.802
 20
-18.2737
 11
135.23
 21
-36.2347
  0
LINE
  8
0
 10
135.23
 20
-36.2347
 11
129.343
 21
-53.5757
  0
LINE
  8
0
 10
129.343
 20
-53.5757
 11
121.244
 21
-70
  0
LINE
  8
0
 10
121.244
 20
-70
 11
111.069
 21
-85.2266
  0
LINE
  8
0
 10
111.069
 20
-85.2266
 11
98.9949
 21
-98.9949
  0
LINE
  8
0
 10
98.9949
 20
-98.9949
 11
85.2266
 21
-111.069
  0
LINE
  8
0
 10
85.2266
 20
-111.069
 11
70
 21
-121.244
  0
LINE
  8
0
 10
70
 20
-121.244
 11
53.5757
 21
-129.343
  0
LINE
  8
0
 10
53.5757
 20
-129.343
 11
36.2347
 21
-135.23
  0
LINE
  8
0
 10
36.2347
 20
-135.23
 11
18.2737
 21
-138.802
  0
LINE
  8
0
 10
18.2737
 20
-138.802
 11
0
 21
-140
  0
LINE
  8
0
 10
0
 20
-140
 11
-18.2737
 21
-138.802
  0
LINE
  8
0
 10
16.3553
 20
-100.787
 11
15.8751
 21
-97.14
  0
LINE
  8
0
 10
15.8751
 20
-97.14
 11
25.6826
 21
-95.8488
  0
LINE
  8
0
 10
25.6826
 20
-95.8488
 11
34.8217
 21
-92.0633
  0
LINE
  8
0
 10
34.8217
 20
-92.0633
 11
36.2296
 21
-95.4621
  0
LINE
  8
0
 10
36.2296
 20
-95.4621
 11
41.8837
 21
-93.1201
  0
LINE
  8
0
 10
41.8837
 20
-93.1201
 11
40.4759
 21
-89.7212
  0
LINE
  8
0
 10
40.4759
 20
-89.7212
 11
49.615
 21
-85.9357
  0
LINE
  8
0
 10
49.615
 20
-85.9357
 11
57.4629
 21
-79.9138
  0
LINE
  8
0
 10
57.4629
 20
-79.9138
 11
59.7025
 21
-82.8324
  0
LINE
  8
0
 10
59.7025
 20
-82.8324
 11
64.5578
 21
-79.1068
  0
LINE
  8
0
 10
64.5578
 20
-79.1068
 11
62.3183
 21
-76.1881
  0
LINE
  8
0
 10
62.3183
 20
-76.1881
 11
70.1662
 21
-70.1662
  0
LINE
  8
0
 10
70.1662
 20
-70.1662
 11
76.1881
 21
-62.3183
  0
LINE
  8
0
 10
76.1881
 20
-62.3183
 11
79.1068
 21
-64.5578
  0
LINE
  8
0
 10
79.1068
 20
-64.5578
 11
82.8324
 21
-59.7025
  0
LINE
  8
0
 10
82.8324
 20
-59.7025
 11
79.9138
 21
-57.4629
  0
LINE
  8
0
 10
79.9138
 20
-57.4629
 11
85.9357
 21
-49.615
  0
LINE
  8
0
 10
85.9357
 20
-49.615
 11
89.7212
 21
-40.4759
  0
LINE
  8
0
 10
89.7212
 20
-40.4759
 11
93.1201
 21
-41.8837
  0
LINE
  8
0
 10
93.1201
 20
-41.8837
 11
95.4621
 21
-36.2296
  0
LINE
  8
0
 10
95.4621
 20
-36.2296
 11
92.0633
 21
-34.8217
  0
LINE
  8
0
 10
92.0633
 20
-34.8217
 11
95.8488
 21
-25.6826
  0
LINE
  8
0
 10
95.8488
 20
-25.6826
 11
97.14
 21
-15.8751
  0
LINE
  8
0
 10
97.14
 20
-15.8751
 11
100.787
 21
-16.3553
  0
LINE
  8
0
 10
100.787
 20
-16.3553
 11
101.586
 21
-10.2877
  0
LINE
  8
0
 10
101.586
 20
-10.2877
 11
97.9388
 21
-9.80748
  0
LINE
  8
0
 10
97.9388
 20
-9.80748
 11
99.23
 21
0
  0
LINE
  8
0
 10
99.23
 20
0
 11
97.9388
 21
9.80748
  0
LINE
  8
0
 10
97.9388
 20
9.80748
 11
101.586
 21
10.2877
  0
LINE
  8
0
 10
101.586
 20
10.2877
 11
100.787
 21
16.3553
  0
LINE
  8
0
 10
100.787
 20
16.3553
 11
97.14
 21
15.8751
  0
LINE
  8
0
 10
97.14
 20
15.8751
 11
95.8488
 21
25.6826
  0
LINE
  8
0
 10
95.8488
 20
25.6826
 11
92.0633
 21
34.8217
  0
LINE
  8
0
 10
92.0633
 20
34.8217
 11
95.4621
 21
36.2296
  0
LINE
  8
0
 10
95.4621
 20
36.2296
 11
93.1201
 21
41.8837
  0
LINE
  8
0
 10
93.1201
 20
41.8837
 11
89.7212
 21
40.4759
  0
LINE
  8
0
 10
89.7212
 20
40.4759
 11
85.9357
 21
49.615
  0
LINE
  8
0
 10
85.9357
 20
49.615
 11
79.9138
 21
57.4629
  0
LINE
  8
0
 10
79.9138
 20
57.4629
 11
82.8324
 21
59.7025
  0
LINE
  8
0
 10
82.8324
 20
59.7025
 11
79.1068
 21
64.5578
  0
LINE
  8
0
 10
79.1068
 20
64.5578
 11
76.1881
 21
62.3183
  0
LINE
  8
0
 10
76.1881
 20
62.3183
 11
70.1662
 21
70.1662
  0
LINE
  8
0
 10
70.1662
 20
70.1662
 11
62.3183
 21
76.1881
  0
LINE
  8
0
 10
62.3183
 20
76.1881
 11
64.5578
 21
79.1068
  0
LINE
  8
0
 10
64.5578
 20
79.1068
 11
59.7025
 21
82.8324
  0
LINE
  8
0
 10
59.7025
 20
82.8324
 11
57.4629
 21
79.9138
  0
LINE
  8
0
 10
57.4629
 20
79.9138
 11
49.615
 21
85.9357
  0
LINE
  8
0
 10
49.615
 20
85.9357
 11
40.4759
 21
89.7212
  0
LINE
  8
0
 10
40.4759
 20
89.7212
 11
41.8837
 21
93.1201
  0
LINE
  8
0
 10
41.8837
 20
93.1201
 11
36.2296
 21
95.4621
  0
LINE
  8
0
 10
36.2296
 20
95.4621
 11
34.8217
 21
92.0633
  0
LINE
  8
0
 10
34.8217
 20
92.0633
 11
25.6826
 21
95.8488
  0
LINE
  8
0
 10
25.6826
 20
95.8488
 11
15.8751
 21
97.14
  0
LINE
  8
0
 10
15.8751
 20
97.14
 11
16.3553
 21
100.787
  0
LINE
  8
0
 10
16.3553
 20
100.787
 11
10.2877
 21
101.586
  0
LINE
  8
0
 10
10.2877
 20
101.586
 11
9.80748
 21
97.9388
  0
LINE
  8
0
 10
9.80748
 20
97.9388
 11
0
 21
99.23
  0
LINE
  8
0
 10
0
 20
99.23
 11
-9.80748
 21
97.9388
  0
LINE
  8
0
 10
-9.80748
 20
97.9388
 11
-10.2877
 21
101.586
  0
LINE
  8
0
 10
-10.2877
 20
101.586
 11
-16.3553
 21
100.787
  0
LINE
  8
0
 10
-16.3553
 20
100.787
 11
-15.8751
 21
97.14
  0
LINE
  8
0
 10
-15.8751
 20
97.14
 11
-25.6826
 21
95.8488
  0
LINE
  8
0
 10
-25.6826
 20
95.8488
 11
-34.8217
 21
92.0633
  0
LINE
  8
0
 10
-34.8217
 20
92.0633
 11
-36.2296
 21
95.4621
  0
LINE
  8
0
 10
-36.2296
 20
95.4621
 11
-41.8837
 21
93.1201
  0
LINE
  8
0
 10
-41.8837
 20
93.1201
 11
-40.4759
 21
89.7212
  0
LINE
  8
0
 10
-40.4759
 20
89.7212
 11
-49.615
 21
85.9357
  0
LINE
  8
0
 10
-49.615
 20
85.9357
 11
-57.4629
 21
79.9138
  0
LINE
  8
0
 10
-57.4629
 20
79.9138
 11
-59.7025
 21
82.8324
  0
LINE
  8
0
 10
-59.7025
 20
82.8324
 11
-64.5578
 21
79.1068
  0
LINE
  8
0
 10
-64.5578
 20
79.1068
 11
-62.3183
 21
76.1881
  0
LINE
  8
0
 10
-62.3183
 20
76.1881
 11
-70.1662
 21
70.1662
  0
LINE
  8
0
 10
-70.1662
 20
70.1662
 11
-76.1881
 21
62.3183
  0
LINE
  8
0
 10
-76.1881
 20
62.3183
 11
-79.1068
 21
64.5578
  0
LINE
  8
0
 10
-79.1068
 20
64.5578
 11
-82.8324
 21
59.7025
  0
LINE
  8
0
 10
-82.8324
 20
59.7025
 11
-79.9138
 21
57.4629
  0
LINE
  8
0
 10
-79.9138
 20
57.4629
 11
-85.9357
 21
49.615
  0
LINE
  8
0
 10
-85.9357
 20
49.615
 11
-89.7212
 21
40.4759
  0
LINE
  8
0
 10
-89.7212
 20
40.4759
 11
-93.1201
 21
41.8837
  0
LINE
  8
0
 10
-93.1201
 20
41.8837
 11
-95.4621
 21
36.2296
  0
LINE
  8
0
 10
-95.4621
 20
36.2296
 11
-92.0633
 21
34.8217
  0
LINE
  8
0
 10
-92.0633
 20
34.8217
 11
-95.8488
 21
25.6826
  0
LINE
  8
0
 10
-95.8488
 20
25.6826
 11
-97.14
 21
15.8751
  0
LINE
  8
0
 10
-97.14
 20
15.8751
 11
-100.787
 21
16.3553
  0
LINE
  8
0
 10
-100.787
 20
16.3553
 11
-101.586
 21
10.2877
  0
LINE
  8
0
 10
-101.586
 20
10.2877
 11
-97.9388
 21
9.80748
  0
LINE
  8
0
 10
-97.9388
 20
9.80748
 11
-99.23
 21
0
  0
LINE
  8
0
 10
-99.23
 20
0
 11
-97.9388
 21
-9.80748
  0
LINE
  8
0
 10
-97.9388
 20
-9.80748
 11
-101.586
 21
-10.2877
  0
LINE
  8
0
 10
-101.586
 20
-10.2877
 11
-100.787
 21
-16.3553
  0
LINE
  8
0
 10
-100.787
 20
-16.3553
 11
-97.14
 21
-15.8751
  0
LINE
  8
0
 10
-97.14
 20
-15.8751
 11
-95.8488
 21
-25.6826
  0
LINE
  8
0
 10
-95.8488
 20
-25.6826
 11
-92.0633
 21
-34.8217
  0
LINE
  8
0
 10
-92.0633
 20
-34.8217
 11
-95.4621
 21
-36.2296
  0
LINE
  8
0
 10
-95.4621
 20
-36.2296
 11
-93.1201
 21
-41.8837
  0
LINE
  8
0
 10
-93.1201
 20
-41.8837
 11
-89.7212
 21
-40.4759
  0
LINE
  8
0
 10
-89.7212
 20
-40.4759
 11
-85.9357
 21
-49.615
  0
LINE
  8
0
 10
-85.9357
 20
-49.615
 11
-79.9138
 21
-57.4629
  0
LINE
  8
0
 10
-79.9138
 20
-57.4629
 11
-82.8324
 21
-59.7025
  0
LINE
  8
0
 10
-82.8324
 20
-59.7025
 11
-79.1068
 21
-64.5578
  0
LINE
  8
0
 10
-79.1068
 20
-64.5578
 11
-76.1881
 21
-62.3183
  0
LINE
  8
0
 10
-76.1881
 20
-62.3183
 11
-70.1662
 21
-70.1662
  0
LINE
  8
0
 10
-70.1662
 20
-70.1662
 11
-62.3183
 21
-76.1881
  0
LINE
  8
0
 10
-62.3183
 20
-76.1881
 11
-64.5578
 21
-79.1068
  0
LINE
  8
0
 10
-64.5578
 20
-79.1068
 11
-59.7025
 21
-82.8324
  0
LINE
  8
0
 10
-59.7025
 20
-82.8324
 11
-57.4629
 21
-79.9138
  0
LINE
  8
0
 10
-57.4629
 20
-79.9138
 11
-49.615
 21
-85.9357
  0
LINE
  8
0
 10
-49.615
 20
-85.9357
 11
-40.4759
 21
-89.7212
  0
LINE
  8
0
 10
-40.4759
 20
-89.7212
 11
-41.8837
 21
-93.1201
  0
LINE
  8
0
 10
-41.8837
 20
-93.1201
 11
-36.2296
 21
-95.4621
  0
LINE
  8
0
 10
-36.2296
 20
-95.4621
 11
-34.8217
 21
-92.0633
  0
LINE
  8
0
 10
-34.8217
 20
-92.0633
 11
-25.6826
 21
-95.8488
  0
LINE
  8
0
 10
-25.6826
 20
-95.8488
 11
-15.8751
 21
-97.14
  0
LINE
  8
0
 10
-15.8751
 20
-97.14
 11
-16.3553
 21
-100.787
  0
LINE
  8
0
 10
-16.3553
 20
-100.787
 11
-10.2877
 21
-101.586
  0
LINE
  8
0
 10
-10.2877
 20
-101.586
 11
-9.80748
 21
-97.9388
  0
LINE
  8
0
 10
-9.80748
 20
-97.9388
 11
0
 21
-99.23
  0
LINE
  8
0
 10
0
 20
-99.23
 11
9.80748
 21
-97.9388
  0
LINE
  8
0
 10
9.80748
 20
-97.9388
 11
10.2877
 21
-101.586
  0
LINE
  8
0
 10
10.2877
 20
-101.586
 11
16.3553
 21
-100.787
  0
LINE
  8
0
 10
-11.7473
 20
-89.23
 11
-23.2937
 21
-86.9333
  0
LINE
  8
0
 10
-23.2937
 20
-86.9333
 11
-34.4415
 21
-83.1492
  0
LINE
  8
0
 10
-34.4415
 20
-83.1492
 11
-45
 21
-77.9423
  0
LINE
  8
0
 10
-45
 20
-77.9423
 11
-54.7885
 21
-71.4018
  0
LINE
  8
0
 10
-54.7885
 20
-71.4018
 11
-63.6396
 21
-63.6396
  0
LINE
  8
0
 10
-63.6396
 20
-63.6396
 11
-71.4018
 21
-54.7885
  0
LINE
  8
0
 10
-71.4018
 20
-54.7885
 11
-77.9423
 21
-45
  0
LINE
  8
0
 10
-77.9423
 20
-45
 11
-83.1492
 21
-34.4415
  0
LINE
  8
0
 10
-83.1492
 20
-34.4415
 11
-86.9333
 21
-23.2937
  0
LINE
  8
0
 10
-86.9333
 20
-23.2937
 11
-89.23
 21
-11.7473
  0
LINE
  8
0
 10
-89.23
 20
-11.7473
 11
-90
 21
0
  0
LINE
  8
0
 10
-90
 20
0
 11
-89.23
 21
11.7473
  0
LINE
  8
0
 10
-89.23
 20
11.7473
 11
-86.9333
 21
23.2937
  0
LINE
  8
0
 10
-86.9333
 20
23.2937
 11
-83.1492
 21
34.4415
  0
LINE
  8
0
 10
-83.1492
 20
34.4415
 11
-77.9423
 21
45
  0
LINE
  8
0
 10
-77.9423
 20
45
 11
-71.4018
 21
54.7885
  0
LINE
  8
0
 10
-71.4018
 20
54.7885
 11
-63.6396
 21
63.6396
  0
LINE
  8
0
 10
-63.6396
 20
63.6396
 11
-54.7885
 21
71.4018
  0
LINE
  8
0
 10
-54.7885
 20
71.4018
 11
-45
 21
77.9423
  0
LINE
  8
0
 10
-45
 20
77.9423
 11
-34.4415
 21
83.1492
  0
LINE
  8
0
 10
-34.4415
 20
83.1492
 11
-23.2937
 21
86.9333
  0
LINE
  8
0
 10
-23.2937
 20
86.9333
 11
-11.7473
 21
89.23
  0
LINE
  8
0
 10
-11.7473
 20
89.23
 11
0
 21
90
  0
LINE
  8
0
 10
0
 20
90
 11
11.7473
 21
89.23
  0
LINE
  8
0
 10
11.7473
 20
89.23
 11
23.2937
 21
86.9333
  0
LINE
  8
0
 10
23.2937
 20
86.9333
 11
34.4415
 21
83.1492
  0
LINE
  8
0
 10
34.4415
 20
83.1492
 11
45
 21
77.9423
  0
LINE
  8
0
 10
45
 20
77.9423
 11
54.7885
 21
71.4018
  0
LINE
  8
0
 10
54.7885
 20
71.4018
 11
63.6396
 21
63.6396
  0
LINE
  8
0
 10
63.6396
 20
63.6396
 11
71.4018
 21
54.7885
  0
LINE
  8
0
 10
71.4018
 20
54.7885
 11
77.9423
 21
45
  0
LINE
  8
0
 10
77.9423
 20
45
 11
83.1492
 21
34.4415
  0
LINE
  8
0
 10
83.1492
 20
34.4415
 11
86.9333
 21
23.2937
  0
LINE
  8
0
 10
86.9333
 20
23.2937
 11
89.23
 21
11.7473
  0
LINE
  8
0
 10
89.23
 20
11.7473
 11
90
 21
0
  0
LINE
  8
0
 10
90
 20
0
 11
89.23
 21
-11.7473
  0
LINE
  8
0
 10
89.23
 20
-11.7473
 11
86.9333
 21
-23.2937
  0
LINE
  8
0
 10
86.9333
 20
-23.2937
 11
83.1492
 21
-34.4415
  0
LINE
  8
0
 10
83.1492
 20
-34.4415
 11
77.9423
 21
-45
  0
LINE
  8
0
 10
77.9423
 20
-45
 11
71.4018
 21
-54.7885
  0
LINE
  8
0
 10
71.4018
 20
-54.7885
 11
63.6396
 21
-63.6396
  0
LINE
  8
0
 10
63.6396
 20
-63.6396
 11
54.7885
 21
-71.4018
  0
LINE
  8
0
 10
54.7885
 20
-71.4018
 11
45
 21
-77.9423
  0
LINE
  8
0
 10
45
 20
-77.9423
 11
34.4415
 21
-83.1492
  0
LINE
  8
0
 10
34.4415
 20
-83.1492
 11
23.2937
 21
-86.9333
  0
LINE
  8
0
 10
23.2937
 20
-86.9333
 11
11.7473
 21
-89.23
  0
LINE
  8
0
 10
11.7473
 20
-89.23
 11
0
 21
-90
  0
LINE
  8
0
 10
0
 20
-90
 11
-11.7473
 21
-89.23
  0
ENDSEC
  0
SECTION
  2
OBJECTS
  0
DICTIONARY
  0
ENDSEC
  0
EOF
